<?xml version="1.0" encoding="UTF-8"?>
<svg xmlns="http://www.w3.org/2000/svg" width="24" height="24" viewBox="0 0 24 24" fill="none">
  <path d="M5.53809 2.7998C5.9458 2.7998 6.27714 3.13042 6.27734 3.53809V6.76465C6.27734 6.91409 6.39841 7.03516 6.54785 7.03516H9.88477C10.2713 7.03524 10.585 7.3488 10.585 7.73535V10.9707C10.585 11.1363 10.7191 11.2705 10.8848 11.2705H14.1924C14.5789 11.2705 14.8926 11.5841 14.8926 11.9707V15.2061C14.8927 15.3717 15.0268 15.5059 15.1924 15.5059H18.5C18.8866 15.5059 19.2002 15.8195 19.2002 16.2061V20.4619C19.2 20.8695 18.8695 21.2 18.4619 21.2002C18.0542 21.2002 17.7229 20.8696 17.7227 20.4619V17.2354C17.7227 17.0859 17.6016 16.9648 17.4521 16.9648H14.1152C13.7287 16.9648 13.415 16.6512 13.415 16.2646V13.0293C13.415 12.8637 13.2809 12.7295 13.1152 12.7295H9.80762C9.42105 12.7295 9.10742 12.4159 9.10742 12.0293V8.79395C9.10733 8.62834 8.97324 8.49414 8.80762 8.49414H5.5C5.1134 8.49414 4.7998 8.18054 4.7998 7.79395V3.53809C4.80001 3.13054 5.13054 2.80001 5.53809 2.7998Z" fill="#7F7972" stroke="#7F7972" stroke-width="0.4"></path>
</svg>
