<?xml version="1.0" encoding="UTF-8"?>
<svg xmlns="http://www.w3.org/2000/svg" width="186" height="54" viewBox="0 0 186 54" fill="none">
  <g clip-path="url(#clip0_2865_976)">
    <path fill-rule="evenodd" clip-rule="evenodd" d="M129.594 29.0378C129.594 30.0452 129.594 31.7608 130.844 32.8661C131.902 33.8736 134.415 34.1729 137.5 33.9714L137.594 33.8678C132.387 33.6663 132.872 31.0469 132.966 28.8305L133.252 19.9648L130.073 20.5693L129.594 29.0378Z" fill="black"></path>
    <path fill-rule="evenodd" clip-rule="evenodd" d="M129.785 16.649C129.592 18.4624 131.906 18.566 133.063 18.0594C133.735 17.76 134.319 17.2534 134.512 16.5511C134.798 14.6398 132.391 14.5362 131.234 15.037C130.457 15.3364 129.878 15.843 129.785 16.649Z" fill="black"></path>
    <path fill-rule="evenodd" clip-rule="evenodd" d="M136.148 26.5214C135.465 32.0999 141.118 33.9767 145.404 33.9767C142.605 34.8805 140.098 37.0969 136.341 40.7238C138.749 40.7238 141.547 40.7238 143.955 41.0231C145.112 41.1268 145.977 41.3283 146.848 41.6276C151.569 43.2396 151.183 46.1583 151.283 46.8664C151.283 56.7223 139.156 52.0362 137.498 47.1658L134.605 49.9867C137.019 52.3067 143.669 54.4195 147.332 53.9129C151.475 53.4121 155.718 51.1956 155.046 46.4577C154.274 40.718 147.525 40.2114 143.189 40.3093C142.324 40.3093 141.454 40.4072 140.682 40.4072C146.319 34.3278 145.74 35.8304 151.597 33.1304C154.087 31.979 156.037 29.7223 155.624 26.602C155.101 23.1248 152.17 21.2596 149.068 20.7587C147.432 20.4594 145.018 20.3558 143.382 20.5573C140.098 20.7875 136.699 22.8715 136.148 26.5214ZM139.933 28.0931C139.448 24.9959 140.699 22.7622 143.184 21.2769C144.726 20.4709 146.655 20.373 148.291 21.0754C151.117 22.5492 152.423 25.3873 151.597 28.663C149.856 35.6059 141.041 35.1626 139.933 28.0931Z" fill="black"></path>
    <path fill-rule="evenodd" clip-rule="evenodd" d="M157.266 26.4178C156.88 29.2387 158.323 31.2536 160.45 32.4626C162.863 33.873 166.428 34.1724 169.127 33.873C170.092 33.7751 171.056 33.5736 171.926 33.1706C173.083 32.6698 174.141 32.0653 175.012 31.1557H171.634C171.155 31.7602 170.477 32.4683 169.706 32.8713C167.645 33.9191 165.139 33.8212 163.342 32.3704C161.893 31.1615 161.028 29.2444 160.929 27.431C164.979 27.3331 169.607 27.431 173.463 27.5346H176.356C176.356 25.2146 175.199 23.1018 173.37 22.0943C172.213 21.392 171.056 20.989 169.706 20.6839C167.392 20.2809 164.02 20.2809 161.706 21.1847C161.128 21.3862 160.549 21.6856 160.064 21.9907C158.715 22.8945 157.458 24.6043 157.266 26.4178ZM160.929 26.9186C160.929 25.3067 161.508 23.6947 162.665 22.5894C163.144 22.0886 163.822 21.582 164.687 21.179C166.207 20.609 167.849 20.6839 169.315 21.3805C169.987 21.6798 170.472 22.1864 170.957 22.5894C172.114 23.7984 172.593 25.3124 172.692 26.9186C168.643 26.9186 164.307 27.0223 160.929 26.9186Z" fill="black"></path>
    <path fill-rule="evenodd" clip-rule="evenodd" d="M178.861 2.03786L177.996 28.9342C177.996 29.9417 177.996 31.6515 179.247 32.7626C180.305 33.7701 182.811 34.0752 185.902 33.8679L185.996 33.7701C180.789 33.5686 181.274 30.9492 181.368 28.7327L182.139 1.53125L178.861 2.03786Z" fill="black"></path>
    <path fill-rule="evenodd" clip-rule="evenodd" d="M78.2234 32.4635L78.3997 35.2844C78.5926 44.7546 83.3142 51.0987 90.1625 53.0158C96.6251 54.8292 103.661 52.3077 107.804 46.8674C110.503 43.3441 110.983 40.0166 111.176 36.2919C111.176 35.6874 111.187 35.5492 111.192 35.4629C117.556 36.6718 122.938 42.4403 123.611 50.2985L128.624 47.7827C128.338 45.3648 127.566 43.252 126.31 41.2371C124.09 37.7081 120.233 35.1923 115.512 34.1849C121.39 32.5729 126.117 27.5356 126.982 22.4983C127.368 20.4834 127.269 18.4684 126.696 16.4535C124.96 10.4087 118.31 5.27355 109.054 5.27355C106.548 5.27355 104.14 5.9759 101.826 6.98336C94.5976 10.0057 91.9916 16.655 92.5701 21.4908C93.3414 27.5356 98.7407 32.9759 105.683 34.2827C105.975 34.3806 106.068 34.1848 105.975 34.0812C105.975 34.0812 100.383 32.6708 97.9694 25.417C94.4048 14.6401 100.476 7.38634 108.096 6.27526C117.253 4.86481 124.101 13.6269 122.073 23.2006C120.812 29.1936 117.275 33.7819 111.181 33.7819C111.181 31.0588 111.567 20.587 111.468 19.2744L107.997 19.8789C107.903 20.1782 107.903 21.1915 107.903 21.5944L107.617 37.4087C107.617 37.9096 107.523 39.6251 107.137 41.1335C105.787 46.7753 101.352 50.8051 96.2449 52.0141C85.0607 52.82 83.6172 44.2595 83.4244 34.6857V24.7147V23.0164H89.2204V18.1576L83.4244 18.1691L83.3472 0.0117188H78.262L78.251 18.1518L75.8984 18.1576V23.0164L78.2455 23.0106L78.2234 32.4635Z" fill="black"></path>
    <path fill-rule="evenodd" clip-rule="evenodd" d="M47.1271 31.8892C47.4797 32.5282 47.915 33.173 48.4439 33.7256C48.9673 34.2726 49.4962 34.7331 50.1959 35.1937C51.7716 36.2011 53.5292 36.7538 55.4575 36.7538C57.0332 36.7538 58.6144 36.3853 59.9312 35.6542V36.7538H64.8401V18.418H59.9312V19.5175C59.3196 19.2412 58.7907 18.9649 58.091 18.7864C57.215 18.5101 56.339 18.418 55.3748 18.418C53.5347 18.418 51.7771 18.8785 50.2014 19.886C49.5899 20.3465 48.9728 20.8013 48.4494 21.354C47.926 21.9067 47.4853 22.5457 47.1327 23.1847C46.78 23.8237 46.4329 24.5606 46.2566 25.2917C46.0803 26.0229 45.9922 26.7598 45.9922 27.583C45.9922 28.4062 46.0803 29.1431 46.2566 29.8743C46.5101 30.5133 46.7745 31.2444 47.1271 31.8892ZM55.4575 31.7971C54.2289 31.7971 53.0884 31.3365 52.2124 30.5133C51.7716 30.0527 51.4245 29.5979 51.2482 29.1374C50.9838 28.6768 50.8956 28.1299 50.8956 27.5772C50.8956 26.3856 51.3309 25.3781 52.2124 24.5491C52.6531 24.0885 53.1766 23.818 53.7055 23.6337C54.2344 23.4495 54.8459 23.3574 55.4575 23.3574C56.069 23.3574 56.6861 23.4495 57.2095 23.6337C57.7329 23.818 58.2618 24.1864 58.7026 24.5491C59.1433 25.0097 59.4904 25.4645 59.6667 25.925C59.843 26.3856 60.0193 26.9325 60.0193 27.5772C60.0193 28.1242 59.9312 28.6768 59.6667 29.2295C59.4904 29.69 59.1433 30.2369 58.7026 30.6054C57.7384 31.4286 56.6861 31.7971 55.4575 31.7971Z" fill="black"></path>
    <path fill-rule="evenodd" clip-rule="evenodd" d="M68.6211 -0.00390625L68.7919 36.7426H73.8771L73.7063 -0.00390625H68.6211Z" fill="black"></path>
    <path fill-rule="evenodd" clip-rule="evenodd" d="M25.5433 36.7523L17.1249 26.8504C17.9127 26.6661 18.7061 26.4819 19.4058 26.2113C20.4581 25.7508 21.4223 25.1118 22.2983 24.2885C23.1743 23.4653 23.7913 22.5442 24.2266 21.5367C24.6673 20.5292 24.9263 19.4297 24.9263 18.238C24.9263 17.0463 24.6618 15.9467 24.2266 14.8472C23.7858 13.8397 23.0861 12.8322 22.122 12.0032C21.1578 11.18 20.1936 10.5352 19.0532 10.0804C17.9127 9.61987 16.6841 9.44141 15.4555 9.44141H0.0234375V36.758H5.89654V27.0403H9.66503L17.9954 36.758L25.5433 36.7523ZM17.8246 20.4371C17.472 20.8056 17.0367 20.9898 16.596 21.1683C16.1552 21.3525 15.7199 21.4446 15.191 21.4446H5.90205V14.9335H15.2847C15.8136 14.9335 16.2489 15.0256 16.6896 15.2098C17.1304 15.3941 17.4775 15.5783 17.9182 15.941C18.2708 16.3094 18.5298 16.58 18.7061 17.0406C18.8824 17.409 18.9705 17.7717 18.9705 18.2322C18.9705 18.6928 18.8824 19.0555 18.7061 19.4239C18.4416 19.7924 18.1772 20.1608 17.8246 20.4371Z" fill="black"></path>
    <path fill-rule="evenodd" clip-rule="evenodd" d="M33.6712 31.7911C32.3709 31.5033 31.2305 30.6512 30.6244 29.3847H44.0235C44.8003 26.1436 43.5001 22.8851 41.131 20.8242C39.3735 19.2928 37.0595 18.4062 34.7676 18.4062C32.8392 18.4062 31.1037 18.9071 29.5611 19.9146C26.8945 21.5898 25.418 24.3819 25.418 27.5713C25.418 32.954 29.9413 36.7363 34.8667 36.7363C38.3157 36.7363 41.0428 35.015 43.0593 32.2056L38.7785 29.6438C38.2716 30.2367 37.7482 30.8067 36.9603 31.2615C35.9356 31.8544 34.8061 32.0444 33.6712 31.7911ZM38.9107 25.9593H30.6189C31.0156 24.2956 32.8392 23.4148 34.6133 23.3918C36.5747 23.3687 38.4975 24.3704 38.9107 25.9593Z" fill="black"></path>
  </g>
  <defs>
    <clipPath id="clip0_2865_976">
      <rect width="186" height="54" fill="white"></rect>
    </clipPath>
  </defs>
</svg>
